<svg xmlns="http://www.w3.org/2000/svg" viewBox="0 0 400 300">
  <defs>
    <linearGradient id="bg" x1="0%" y1="0%" x2="100%" y2="100%">
      <stop offset="0%" stop-color="#1e3a5f"/>
      <stop offset="100%" stop-color="#0d2137"/>
    </linearGradient>
  </defs>
  <rect width="400" height="300" fill="url(#bg)"/>
  <rect x="28" y="36" width="344" height="228" rx="10" fill="#0f1929"/>
  <circle cx="52" cy="57" r="7" fill="#ff5f57"/>
  <circle cx="74" cy="57" r="7" fill="#ffbd2e"/>
  <circle cx="96" cy="57" r="7" fill="#28ca41"/>
  <text x="48" y="94" font-family="monospace" font-size="13" fill="#64748b">1</text>
  <text x="68" y="94" font-family="monospace" font-size="13" fill="#7dd3fc">from</text>
  <text x="105" y="94" font-family="monospace" font-size="13" fill="#e2e8f0">flask</text>
  <text x="143" y="94" font-family="monospace" font-size="13" fill="#7dd3fc">import</text>
  <text x="196" y="94" font-family="monospace" font-size="13" fill="#e2e8f0">Flask, render_template</text>
  <text x="48" y="116" font-family="monospace" font-size="13" fill="#64748b">2</text>
  <text x="68" y="116" font-family="monospace" font-size="13" fill="#e2e8f0">app = Flask(__name__)</text>
  <text x="48" y="146" font-family="monospace" font-size="13" fill="#64748b">3</text>
  <text x="68" y="146" font-family="monospace" font-size="13" fill="#86efac">@app.route('/')</text>
  <text x="48" y="168" font-family="monospace" font-size="13" fill="#64748b">4</text>
  <text x="68" y="168" font-family="monospace" font-size="13" fill="#fbbf24">def</text>
  <text x="98" y="168" font-family="monospace" font-size="13" fill="#7dd3fc">home</text>
  <text x="128" y="168" font-family="monospace" font-size="13" fill="#e2e8f0">():</text>
  <text x="48" y="190" font-family="monospace" font-size="13" fill="#64748b">5</text>
  <text x="84" y="190" font-family="monospace" font-size="13" fill="#fbbf24">return</text>
  <text x="134" y="190" font-family="monospace" font-size="13" fill="#7dd3fc">render_template</text>
  <text x="262" y="190" font-family="monospace" font-size="13" fill="#fca5a5">('index.html')</text>
  <line x1="28" y1="232" x2="372" y2="232" stroke="#1e3a5f" stroke-width="1"/>
  <text x="200" y="254" font-family="Arial,sans-serif" font-size="12" fill="#94a3b8" text-anchor="middle">Python · Flask · Gunicorn · Render</text>
</svg>
